#!OML:ASF E:\Steps\Project 1\Capture day 1\Session 2\Subject.ASF
:FULLY-SPECIFIED
:DEGREES
366
root 9.2592 21.5947 18.7738 -124.012 -79.4447 151.832
lowerback -26.6487 -3.95434 -3.48723
upperback -4.59879 -4.63804 0.0111998
thorax 9.88269 -2.49542 0.378214
lowerneck -1.00387 -0.159618 0.311362
upperneck -3.59698 -0.365437 -3.47367
head -0.945214 -0.174675 -1.11944
rclavicle -3.58682e-014 -1.83876e-014
rhumerus -48.2835 4.02554 -73.1801
rradius 48.2542
rwrist -4.67117
rhand -4.52307 -51.9792
rfingers 7.12502
rthumb 21.2516 -80.8342
lclavicle -3.58682e-014 -1.83876e-014
lhumerus -26.4361 -18.3006 86.1877
lradius 40.3637
lwrist 0.320615
lhand -25.4115 -17.4906
lfingers 7.12502
lthumb 1.11415 12.4862
rfemur -32.8763 5.84294 10.0926
rtibia 12.0828
rfoot 17.1162 -20.4977
rtoes -26.9627
lfemur -34.1761 -2.91361 -20.357
ltibia 15.3084
lfoot 24.0913 10.1291
ltoes -37.7322
367
root 9.25504 21.3935 18.7722 -122.396 -80.3465 150.23
lowerback -26.5331 -3.95039 -3.30203
upperback -4.6113 -4.68984 0.0730945
thorax 9.8037 -2.5124 0.332127
lowerneck -0.907627 -0.0520005 0.143208
upperneck -3.7136 -0.215371 -3.18846
head -0.992662 -0.0974522 -1.00306
rclavicle 4.41178e-014 -2.98177e-016
rhumerus -48.3735 4.56868 -72.7353
rradius 48.3937
rwrist -4.79232
rhand -4.72475 -52.0673
rfingers 7.12502
rthumb 21.0579 -80.9439
lclavicle 4.41178e-014 -2.98177e-016
lhumerus -26.6668 -18.1549 85.7414
lradius 40.5308
lwrist 0.377856
lhand -25.513 -17.5874
lfingers 7.12502
lthumb 1.01611 12.39
rfemur -32.7385 6.38313 10.0077
rtibia 11.5144
rfoot 16.9083 -20.0227
rtoes -28.0853
lfemur -34.0045 -3.2378 -19.9688
ltibia 14.7197
lfoot 23.8018 10.1542
ltoes -38.0102
368
root 9.2494 21.1803 18.7706 -119.34 -81.1676 147.164
lowerback -26.4162 -3.97511 -3.28162
upperback -4.62492 -4.72637 0.0691104
thorax 9.72808 -2.52676 0.31176
lowerneck -0.83865 0.0517877 0.0089502
upperneck -3.8433 -0.0702274 -2.89433
head -1.04052 -0.0237007 -0.890312
rclavicle 2.78982e-014 3.01656e-014
rhumerus -48.4832 5.01387 -72.2399
rradius 48.5693
rwrist -4.82831
rhand -2.0372 -53.3582
rfingers 7.12502
rthumb 23.6377 -81.9251
lclavicle 2.78982e-014 3.01656e-014
lhumerus -26.9153 -18.1948 85.341
lradius 40.7527
lwrist 0.568807
lhand -25.5424 -17.5579
lfingers 7.12502
lthumb 0.987672 12.4195
rfemur -32.6508 6.47599 9.98954
rtibia 11.2318
rfoot 17.4829 -18.1103
rtoes -37.5272
lfemur -33.8534 -3.58591 -19.8378
ltibia 14.1722
lfoot 23.8874 9.55663
ltoes -37.9315
369
root 9.2434 20.9533 18.7686 -115.243 -81.934 143.168
lowerback -26.4723 -3.9764 -3.22616
upperback -4.62984 -4.72655 -0.0464877
thorax 9.73657 -2.52223 0.148644
lowerneck -0.802607 0.13841 0.0261314
upperneck -3.97533 0.0524243 -2.62381
head -1.08499 0.0365118 -0.810669
rclavicle 8.79312e-015 -1.45113e-014
rhumerus -48.6426 5.05851 -71.7791
rradius 48.8253
rwrist -4.53063
rhand -5.66726 -52.2125
rfingers 7.12502
rthumb 20.1522 -81.1873
lclavicle 8.79312e-015 -1.45113e-014
lhumerus -27.1305 -18.3804 84.8154
lradius 40.982
lwrist 0.655332
lhand -25.7764 -17.3555
lfingers 7.12502
lthumb 0.761665 12.6229
rfemur -32.5836 7.0456 9.52512
rtibia 10.6985
rfoot 16.4436 -18.4028
rtoes -37.0308
lfemur -33.8986 -4.03545 -19.7232
ltibia 13.7193
lfoot 24.1589 8.85093
ltoes -37.7872
370
root 9.23898 20.7142 18.7642 -111.532 -82.6947 139.63
lowerback -26.6142 -3.92144 -3.11237
upperback -4.64483 -4.67424 -0.105128
thorax 9.7766 -2.49235 0.0289769
lowerneck -0.757073 0.188084 -0.056033
upperneck -4.07781 0.127673 -2.31814
head -1.12268 0.0735139 -0.703298
rclavicle -3.09848e-014 1.75676e-014
rhumerus -48.7999 5.21844 -71.3635
rradius 49.0962
rwrist -4.53918
rhand -2.0382 -51.935
rfingers 7.12502
rthumb 23.6367 -80.502
lclavicle -3.09848e-014 1.75676e-014
lhumerus -27.3535 -18.6632 84.342
lradius 41.1658
lwrist 0.672669
lhand -26.1708 -17.3484
lfingers 7.12502
lthumb 0.380823 12.631
rfemur -32.591 7.40168 9.38665
rtibia 10.1338
rfoot 15.6089 -18.4992
rtoes -33.9786
lfemur -34.034 -4.56889 -19.3208
ltibia 13.2922
lfoot 24.399 8.69314
ltoes -37.3253
371
root 9.23526 20.4642 18.7572 -107.411 -83.3089 135.586
lowerback -26.646 -3.93838 -3.18411
upperback -4.65346 -4.66991 -0.127777
thorax 9.78618 -2.49094 0.0445408
lowerneck -0.672176 0.278888 -0.136394
upperneck -4.18778 0.256676 -2.04246
head -1.1694 0.137662 -0.606434
rclavicle 1.12748e-015 -1.65861e-014
rhumerus -48.8668 5.6318 -71.0528
rradius 49.3678
rwrist -4.92553
rhand -2.86828 -52.1478
rfingers 7.12502
rthumb 22.8404 -80.8154
lclavicle 1.12748e-015 -1.65861e-014
lhumerus -27.6435 -18.8862 83.8683
lradius 41.3351
lwrist 0.782287
lhand -26.5865 -17.2055
lfingers 7.12502
lthumb -0.0207113 12.7743
rfemur -32.6052 7.6561 9.33176
rtibia 9.71122
rfoot 15.2472 -18.1481
rtoes -30.7482
lfemur -34.0161 -5.11428 -18.9725
ltibia 12.822
lfoot 24.7355 8.59925
ltoes -36.8633
372
root 9.2296 20.2026 18.7491 -101.547 -83.8353 129.76
lowerback -26.618 -4.02507 -3.42175
upperback -4.68725 -4.71497 -0.13833
thorax 9.7517 -2.51859 0.15526
lowerneck -0.574544 0.396094 -0.277148
upperneck -4.30022 0.420745 -1.76167
head -1.21953 0.219844 -0.498617
rclavicle 2.29565e-014 -6.01324e-015
rhumerus -48.9237 5.8405 -70.5814
rradius 49.6413
rwrist -5.13861
rhand -3.73145 -52.1181
rfingers 7.12502
rthumb 22.0118 -80.8855
lclavicle 2.29565e-014 -6.01324e-015
lhumerus -28.0071 -18.8358 83.5098
lradius 41.4599
lwrist 0.903684
lhand -26.9691 -16.8747
lfingers 7.12502
lthumb -0.390254 13.1047
rfemur -32.6386 7.96354 9.20613
rtibia 9.7704
rfoot 14.5103 -17.8774
rtoes -27.6706
lfemur -34.0022 -5.59739 -18.7846
ltibia 12.4852
lfoot 25.0376 8.56532
ltoes -35.0642
373
root 9.2221 19.9303 18.7405 -94.8153 -84.3672 123.084
lowerback -26.6612 -4.05759 -3.5426
upperback -4.70131 -4.71762 -0.15124
thorax 9.76568 -2.52203 0.206543
lowerneck -0.513535 0.475329 -0.498881
upperneck -4.40521 0.535573 -1.43182
head -1.26262 0.277356 -0.361929
rclavicle 3.01035e-014 1.79403e-014
rhumerus -48.9263 5.95079 -70.0839
rradius 49.8505
rwrist -4.91744
rhand -3.61957 -51.695
rfingers 7.12502
rthumb 22.1192 -80.4497
lclavicle 3.01035e-014 1.79403e-014
lhumerus -28.3711 -18.8099 83.2409
lradius 41.573
lwrist 1.06901
lhand -27.3085 -16.7944
lfingers 7.12502
lthumb -0.718076 13.1842
rfemur -32.544 7.60857 9.60403
rtibia 9.82626
rfoot 15.0254 -16.0519
rtoes -32.2408
lfemur -34.077 -6.086 -18.4816
ltibia 12.3154
lfoot 25.4098 8.56667
ltoes -34.0413
374
root 9.21359 19.6451 18.7284 -86.7649 -84.8121 115.069
lowerback -26.7479 -4.11871 -3.69792
upperback -4.66334 -4.74306 -0.145494
thorax 9.86623 -2.53622 0.284911
lowerneck -0.479068 0.54983 -0.692181
upperneck -4.49757 0.644784 -1.10434
head -1.29824 0.331218 -0.230695
rclavicle -9.67212e-015 3.27995e-015
rhumerus -48.7729 6.39631 -69.8127
rradius 49.9529
rwrist -4.71433
rhand -4.50172 -51.4651
rfingers 7.12502
rthumb 21.2721 -80.3177
lclavicle -9.67212e-015 3.27995e-015
lhumerus -28.4934 -18.8859 82.8797
lradius 41.4144
lwrist 1.15561
lhand -27.4704 -17.0931
lfingers 7.12502
lthumb -0.874443 12.8848
rfemur -32.4471 7.57795 9.75293
rtibia 9.80741
rfoot 14.9301 -15.686
rtoes -33.0525
lfemur -34.2066 -6.52818 -18.2587
ltibia 12.3227
lfoot 26.0175 7.8351
ltoes -35.7542
375
root 9.20773 19.3488 18.7139 -77.1044 -85.0927 105.399
lowerback -26.7169 -4.19925 -3.93238
upperback -4.63243 -4.77295 -0.171358
thorax 9.90207 -2.55464 0.379191
lowerneck -0.48166 0.62676 -0.832927
upperneck -4.58849 0.757448 -0.792876
head -1.32781 0.385753 -0.113038
rclavicle 7.0904e-014 -5.96354e-016
rhumerus -48.5801 6.73198 -69.5483
rradius 50.0231
rwrist -4.82363
rhand -5.4813 -51.599
rfingers 7.12502
rthumb 20.3309 -80.5548
lclavicle 7.0904e-014 -5.96354e-016
lhumerus -28.5402 -18.8809 82.3953
lradius 41.1362
lwrist 0.917093
lhand -27.4942 -17.3721
lfingers 7.12502
lthumb -0.897389 12.6058
rfemur -32.3419 7.80855 9.77729
rtibia 9.95515
rfoot 14.4275 -16.6399
rtoes -29.9268
lfemur -34.3917 -6.91295 -18.1574
ltibia 12.5823
lfoot 26.6025 7.19131
ltoes -36.134
376
root 9.20926 19.0457 18.7029 -67.5916 -85.3074 95.94
lowerback -26.6734 -4.16317 -3.98024
upperback -4.61191 -4.69635 -0.292485
thorax 9.89232 -2.51641 0.300572
lowerneck -0.567843 0.687013 -0.868787
upperneck -4.70055 0.848561 -0.48799
head -1.34996 0.427232 -0.0142465
rclavicle -1.05853e-014 -1.70955e-014
rhumerus -48.3677 6.47357 -69.2142
rradius 50.1098
rwrist -4.78214
rhand -3.10233 -51.5106
rfingers 7.12502
rthumb 22.6158 -80.2057
lclavicle -1.05853e-014 -1.70955e-014
lhumerus -28.7333 -18.9701 81.8045
lradius 41.1676
lwrist 0.607645
lhand -27.303 -17.2288
lfingers 7.12502
lthumb -0.712728 12.7497
rfemur -32.5754 6.84879 10.5973
rtibia 10.6942
rfoot 15.6797 -15.2425
rtoes -33.0187
lfemur -34.7408 -7.3824 -17.8335
ltibia 13.0573
lfoot 27.1846 7.43276
ltoes -34.7728
377
root 9.21336 18.7305 18.6938 -58.2463 -85.4089 86.6868
lowerback -26.6019 -4.11242 -4.0716
upperback -4.6474 -4.59942 -0.370061
thorax 9.8109 -2.47169 0.306572
lowerneck -0.595082 0.766378 -0.989171
upperneck -4.82423 0.965496 -0.156465
head -1.38726 0.482687 0.106395
rclavicle 6.31141e-014 -3.18055e-015
rhumerus -48.1992 6.28841 -68.901
rradius 50.1765
rwrist -4.39597
rhand -3.90479 -51.8119
rfingers 7.12502
rthumb 21.8454 -80.5988
lclavicle 6.31141e-014 -3.18055e-015
lhumerus -29.03 -19.1579 81.3817
lradius 41.2055
lwrist 0.482909
lhand -27.0165 -17.0495
lfingers 7.12502
lthumb -0.436001 12.9298
rfemur -33.0366 5.75394 11.434
rtibia 11.8253
rfoot 16.4199 -14.0242
rtoes -33.914
lfemur -35.2304 -7.72262 -17.5619
ltibia 13.842
lfoot 28.0413 7.59512
ltoes -34.4246
378
root 9.21693 18.3998 18.6798 -48.6629 -85.4357 77.1139
lowerback -26.3763 -4.10753 -4.23486
upperback -4.72533 -4.5627 -0.340833
thorax 9.61971 -2.45853 0.462666
lowerneck -0.531797 0.89385 -1.25012
upperneck -4.95149 1.14621 0.190925
head -1.44389 0.572312 0.254586
rclavicle 7.40473e-015 8.74653e-015
rhumerus -48.0177 6.55619 -68.7136
rradius 50.1554
rwrist -4.00239
rhand -3.47795 -52.0523
rfingers 7.12502
rthumb 22.2552 -80.7909
lclavicle 7.40473e-015 8.74653e-015
lhumerus -29.4281 -19.4079 81.1241
lradius 41.125
lwrist 0.506834
lhand -27.1415 -17.2555
lfingers 7.12502
lthumb -0.556707 12.7235
rfemur -33.4916 4.64677 12.3203
rtibia 13.204
rfoot 16.7901 -13.2578
rtoes -34.0994
lfemur -35.7573 -7.71214 -17.4199
ltibia 15.103
lfoot 29.0573 7.3772
ltoes -35.4294
379
root 9.22315 18.0601 18.6639 -38.1809 -85.4722 66.6255
lowerback -26.1149 -4.07474 -4.23208
upperback -4.77978 -4.53868 -0.271115
thorax 9.42934 -2.44557 0.566146
lowerneck -0.507196 1.02266 -1.49246
upperneck -5.07172 1.32918 0.532311
head -1.4932 0.66248 0.39843
rclavicle 4.22417e-016 -2.08724e-014
rhumerus -47.6971 6.84766 -68.6046
rradius 50.1155
rwrist -3.87486
rhand -3.36748 -51.9316
rfingers 7.12502
rthumb 22.3613 -80.6575
lclavicle 4.22417e-016 -2.08724e-014
lhumerus -29.8459 -19.7369 80.8598
lradius 41.0789
lwrist 0.624406
lhand -27.5996 -17.3879
lfingers 7.12502
lthumb -0.999243 12.5895
rfemur -34.0889 3.77924 13.5639
rtibia 15.4102
rfoot 15.9934 -12.4199
rtoes -36.0508
lfemur -36.4591 -7.45792 -17.1408
ltibia 16.8661
lfoot 29.5707 6.97292
ltoes -35.2709
